<?xml version="1.0" encoding="UTF-8"?>
<!DOCTYPE svg PUBLIC "-//W3C//DTD SVG 1.1//EN" "http://www.w3.org/Graphics/SVG/1.1/DTD/svg11.dtd">
<!-- Creator: CorelDRAW X7 -->
<svg xmlns="http://www.w3.org/2000/svg" xml:space="preserve" width="8.02146in" height="3.88372in" version="1.1" style="shape-rendering:geometricPrecision; text-rendering:geometricPrecision; image-rendering:optimizeQuality; fill-rule:evenodd; clip-rule:evenodd"
viewBox="0 0 8021 3884"
 xmlns:xlink="http://www.w3.org/1999/xlink">
 <defs>
  <style type="text/css">
   <![CDATA[
    .str0 {stroke:#373435;stroke-width:2.99995}
    .fil0 {fill:#373435}
    .fil3 {fill:#ED3237}
    .fil2 {fill:#606062;fill-rule:nonzero}
    .fil1 {fill:#373435;fill-rule:nonzero}
    .fil4 {fill:#ED3237;fill-rule:nonzero}
   ]]>
  </style>
 </defs>
 <g id="Layer_x0020_1">
  <metadata id="CorelCorpID_0Corel-Layer"/>
  <g id="_831538608">
   <path class="fil0" d="M4387 1943c0,13 0,27 0,40 -2,6 -12,24 -19,25 -13,2 -42,-13 -53,-21 -5,-4 -4,-4 -19,-4 -13,0 -27,0 -40,0 -11,0 -10,7 -14,15 -9,44 -80,160 -130,162 0,1 0,3 0,4 40,19 81,32 90,35 58,22 104,29 164,31 1,0 5,4 10,5 -2,8 -41,3 -52,3 -48,0 -62,-5 -103,-10 -3,0 -78,-22 -95,-32 -67,-31 -138,-85 -188,-151 -27,-32 -51,-75 -21,-111 6,-6 5,-5 14,-6 -1,9 -1,4 -3,6 -65,65 139,203 194,201 3,-5 7,-5 12,-10 36,-32 82,-112 96,-150 4,-11 3,-11 7,-13 11,-6 57,-1 68,1 26,5 35,31 63,29 8,-16 11,-16 9,-48 0,-8 -2,-8 -4,-14 -1,-4 0,-2 -2,-5 -3,-4 -6,-12 -10,-15 -3,-4 -5,-8 -3,-11 1,-2 4,1 5,2 2,2 4,4 6,6 2,3 9,16 11,21 6,9 4,7 7,15z"/>
   <path class="fil0" d="M4566 1855c1,0 0,4 -1,5 -2,1 -5,0 -8,-1 -7,-2 1,0 -4,-2 -43,-24 -137,-53 -150,14 -12,60 109,171 140,235 0,1 0,1 0,1 2,3 0,-3 2,2 2,7 3,19 0,25 -34,66 -110,84 -113,87 -1,2 -2,5 -1,7 2,2 4,4 7,5 58,22 171,16 218,-49 6,-7 -12,-53 -16,-59 -12,-23 -71,-193 -70,-196 3,-5 3,-1 6,4 8,14 94,215 98,240 15,99 -210,123 -267,65 -7,-8 -11,-15 -4,-24 4,-6 1,0 5,-3 1,-1 2,-2 3,-3 0,0 0,0 1,-1 23,-22 111,-37 109,-94 -1,-14 -34,-58 -48,-72 0,0 0,0 -1,0 -2,-2 -5,-5 -7,-7 -32,-35 -98,-131 -76,-177 35,-71 123,-29 177,-2z"/>
   <path class="fil0" d="M3989 1477c86,1 156,100 158,174 3,91 -1,92 -15,154 -7,35 -64,82 -92,89 -36,9 -48,6 -85,5 -11,-4 -50,-20 -50,-29 14,0 8,1 12,4 7,4 36,14 43,15 11,2 38,2 49,0 44,-7 76,-51 103,-80 10,-25 12,-44 14,-72 6,-59 -12,-222 -92,-225 0,9 -1,5 5,10 -1,3 -1,5 -1,8 -11,0 -22,1 -33,1 0,16 15,10 9,35 -2,8 -4,1 -7,-1 -7,-4 -7,-1 -13,-8 -2,-2 0,-2 -4,-3 0,-1 0,-2 0,-4 27,1 10,7 4,-14 -6,-1 -13,-4 -15,-9 6,-7 27,-5 35,-8 -1,-5 -3,-3 -6,-8 -16,0 -32,-1 -48,-1 0,-5 0,-9 0,-14 6,0 13,-15 14,-19 -28,0 -20,12 -39,19 -63,23 -130,61 -133,137 -1,0 -2,0 -3,0 -1,-47 16,-79 61,-118 30,-27 91,-32 101,-48 9,0 18,0 28,0 0,3 0,7 0,10z"/>
   <path class="fil0" d="M4348 1763c27,31 26,53 15,81 -12,28 -90,39 -108,43 -16,10 -51,14 -60,26 -20,20 -102,133 -128,105 -14,-17 -27,-42 -29,-60 15,0 11,9 20,9 2,-71 30,-82 87,-111 11,-4 23,-2 30,-12 0,0 0,0 1,-1 9,-11 34,-45 35,-58 3,-2 3,-3 10,-3 -1,16 -23,69 -41,78 -87,40 -102,44 -102,123 45,0 61,-49 96,-83 24,-27 71,-34 105,-40 25,-4 70,-22 70,-50 0,-2 0,-7 0,-9 -4,-29 -22,-46 -51,-52 -8,-2 -73,-2 -88,-2 0,-10 20,-8 31,-10 15,0 29,-1 43,0 8,0 19,-2 26,1 16,5 26,13 38,25z"/>
   <path class="fil0" d="M4456 2054c0,0 -128,14 -151,48 -35,52 68,103 68,105 0,19 -153,-50 -80,-126 33,-35 108,-35 154,-35 9,0 13,3 9,8z"/>
   <path class="fil0" d="M4673 2116c-7,-1 -4,-4 0,-5 84,-16 42,-177 39,-182 -5,-1 -11,-1 -9,-3 8,-10 16,1 21,10 26,52 38,190 -51,180z"/>
   <path class="fil0" d="M4618 1998c1,1 -2,4 -4,0 -5,-9 -13,-23 -14,-36 -2,-23 -1,-37 0,-46 1,-13 11,-28 19,-36 17,-14 51,27 66,37 12,9 15,-4 8,7 -7,12 -58,-28 -64,-20 -9,11 -19,66 -11,94z"/>
   <path class="fil0 str0" d="M3712 1302l91 12c-115,180 -126,365 -105,535 21,170 104,263 193,355 117,119 286,161 445,211 -209,16 -527,-140 -637,-357 -110,-217 -126,-513 13,-756z"/>
   <path class="fil0 str0" d="M4544 0c-32,238 -149,424 -376,546 17,217 120,254 234,266 -107,51 -201,112 -289,177l-49 -62c65,-47 90,-58 152,-100 -83,-64 -112,-207 -112,-307 239,-116 376,-295 440,-520z"/>
   <path class="fil1" d="M916 1459c5,51 12,109 19,173 8,64 16,130 24,197 8,67 16,130 24,189 7,59 14,110 21,152 1,15 5,32 10,52 5,20 10,35 13,46 0,1 1,2 1,2 1,0 1,2 1,3 0,9 -7,16 -22,21 -14,5 -28,7 -43,7 -12,0 -23,-2 -32,-5 -10,-4 -15,-9 -16,-17 -1,-19 -2,-35 -3,-49 -1,-14 -2,-30 -4,-50 -4,-40 -10,-88 -16,-144 -6,-56 -12,-116 -19,-180 -7,-64 -13,-127 -20,-190 -7,-63 -13,-122 -18,-176 -27,55 -53,112 -80,170 -27,58 -53,114 -77,167 -24,54 -45,102 -64,146 -18,43 -33,79 -43,106 -11,28 -16,44 -16,49 -1,12 -9,21 -24,28 -15,7 -30,11 -46,11 -9,0 -18,-2 -26,-5 -8,-3 -13,-8 -15,-15 -4,-14 -9,-29 -15,-45 -6,-16 -10,-27 -13,-32 -13,-31 -29,-69 -47,-115 -19,-46 -39,-95 -60,-148 -22,-52 -43,-105 -63,-157 -21,-52 -40,-101 -57,-146 -6,72 -13,149 -22,230 -8,80 -17,159 -26,236 -9,77 -17,148 -25,212 -2,16 -3,31 -4,46 -1,15 -2,32 -4,49 -1,8 -8,14 -21,19 -12,4 -26,7 -41,7 -13,0 -24,-2 -33,-6 -9,-3 -14,-8 -14,-14l0 -3c7,-23 14,-55 21,-96 7,-41 14,-87 22,-138 7,-51 13,-105 20,-160 7,-56 13,-109 19,-161 7,-52 12,-99 16,-141 4,-42 7,-76 10,-101 2,-25 4,-38 4,-39 0,-7 -1,-13 -1,-18 0,-5 -1,-10 -1,-14 0,-2 0,-4 0,-7 0,-2 1,-5 2,-6 1,-11 11,-20 28,-28 16,-8 33,-12 50,-12 12,0 21,2 27,6 5,5 12,19 21,42 20,53 42,109 65,167 23,59 46,117 69,174 23,58 45,112 67,163 21,51 40,96 58,135 28,-69 59,-141 91,-217 32,-75 65,-150 99,-224 34,-75 66,-143 96,-206 6,-13 12,-24 17,-36 5,-11 16,-16 31,-16 9,0 21,2 36,7 14,5 27,11 38,18 12,7 17,14 17,21 0,9 -1,18 -3,26 -2,9 -3,19 -3,30l0 10zm461 -24c31,-28 66,-50 105,-66 39,-15 85,-23 137,-23 80,0 148,20 206,60 58,40 102,95 133,165 31,70 46,150 46,240 0,68 -8,133 -26,194 -17,61 -43,115 -79,162 -36,47 -82,84 -137,110 -55,27 -120,40 -195,40 -95,0 -173,-20 -235,-62 -61,-41 -107,-97 -136,-168 -30,-71 -45,-151 -45,-242 0,-59 7,-115 22,-167 15,-51 33,-97 54,-136 21,-39 42,-69 64,-91 21,-22 38,-32 51,-32 8,0 14,1 20,4 7,3 11,7 15,12zm179 797c66,0 121,-12 167,-35 45,-24 81,-56 109,-97 27,-40 47,-87 60,-138 13,-52 19,-106 19,-162 0,-45 -6,-90 -18,-135 -13,-45 -32,-85 -57,-121 -25,-36 -57,-64 -94,-86 -38,-22 -81,-33 -131,-33 -38,0 -79,9 -122,27 -43,18 -83,44 -120,79 -37,35 -68,79 -91,131 -24,52 -35,112 -35,181 0,71 11,135 33,194 22,59 56,106 102,142 46,35 106,53 178,53zm1486 -773c6,51 12,109 20,173 7,64 15,130 24,197 8,67 16,130 24,189 7,59 14,110 20,152 2,15 5,32 11,52 5,20 9,35 13,46 0,1 0,2 1,2 0,0 0,2 0,3 0,9 -7,16 -21,21 -14,5 -29,7 -44,7 -11,0 -22,-2 -32,-5 -9,-4 -15,-9 -16,-17 0,-19 -1,-35 -2,-49 -1,-14 -2,-30 -4,-50 -5,-40 -10,-88 -16,-144 -6,-56 -13,-116 -19,-180 -7,-64 -14,-127 -20,-190 -7,-63 -13,-122 -18,-176 -27,55 -54,112 -81,170 -27,58 -52,114 -76,167 -24,54 -45,102 -64,146 -19,43 -33,79 -44,106 -10,28 -16,44 -16,49 -1,12 -9,21 -24,28 -15,7 -30,11 -45,11 -10,0 -19,-2 -26,-5 -8,-3 -13,-8 -15,-15 -5,-14 -10,-29 -15,-45 -6,-16 -10,-27 -13,-32 -13,-31 -29,-69 -48,-115 -18,-46 -38,-95 -60,-148 -21,-52 -42,-105 -63,-157 -21,-52 -39,-101 -56,-146 -7,72 -14,149 -22,230 -9,80 -17,159 -26,236 -9,77 -17,148 -25,212 -2,16 -4,31 -4,46 -1,15 -3,32 -4,49 -1,8 -8,14 -21,19 -13,4 -27,7 -42,7 -12,0 -23,-2 -32,-6 -10,-3 -14,-8 -14,-14l0 -3c7,-23 14,-55 21,-96 7,-41 14,-87 21,-138 7,-51 14,-105 21,-160 6,-56 13,-109 19,-161 6,-52 11,-99 15,-141 4,-42 8,-76 10,-101 3,-25 4,-38 4,-39 0,-7 0,-13 0,-18 -1,-5 -1,-10 -1,-14 0,-2 0,-4 0,-7 0,-2 0,-5 1,-6 2,-11 11,-20 28,-28 17,-8 34,-12 51,-12 12,0 21,2 26,6 6,5 13,19 22,42 20,53 42,109 65,167 23,59 46,117 69,174 23,58 45,112 66,163 22,51 41,96 59,135 28,-69 58,-141 91,-217 32,-75 65,-150 99,-224 33,-75 65,-143 95,-206 7,-13 12,-24 18,-36 5,-11 15,-16 30,-16 10,0 22,2 36,7 14,5 27,11 39,18 11,7 17,14 17,21 0,9 -1,18 -3,26 -2,9 -4,19 -4,30l0 10zm2167 51c0,-27 -1,-54 -2,-79 -1,-26 -2,-46 -2,-62 0,-8 9,-13 28,-13 15,0 31,3 47,10 16,7 25,16 25,27 0,11 -1,28 -2,50 -1,23 -1,46 -1,69l0 234c56,-44 108,-87 157,-130 50,-43 93,-83 131,-119 38,-36 69,-66 93,-90 23,-23 37,-38 42,-43 3,-4 10,-7 21,-7 16,0 33,6 52,16 18,10 28,20 28,30 0,4 -2,8 -6,10 -13,12 -29,25 -46,39 -18,14 -38,31 -60,52 -41,37 -87,78 -140,123 -52,44 -107,90 -166,137 1,0 9,9 25,27 15,18 36,41 63,70 27,29 56,62 90,98 33,36 67,72 103,109 36,37 71,71 106,104 35,33 66,61 94,85 4,3 6,6 6,10 0,8 -9,17 -27,26 -18,8 -36,12 -56,12 -9,0 -17,-1 -25,-4 -8,-2 -14,-7 -19,-13 -5,-7 -11,-15 -18,-24 -7,-9 -16,-19 -27,-31 -24,-24 -51,-54 -83,-87 -31,-34 -65,-70 -100,-108 -36,-38 -70,-76 -104,-114 -35,-37 -66,-73 -94,-105l-40 32 0 295c0,30 1,58 2,85 1,27 2,48 2,64 0,8 -9,13 -28,13 -14,0 -30,-3 -47,-10 -16,-7 -25,-16 -25,-27 0,-11 1,-28 2,-52 0,-24 1,-49 1,-75l0 -634zm849 0c0,-27 0,-54 -2,-79 -1,-26 -2,-46 -2,-62 0,-8 10,-13 29,-13 16,0 32,3 50,10 17,7 26,16 26,27 0,11 0,28 -1,50 -1,23 -1,46 -1,69l0 640c0,28 0,54 2,80 1,26 2,46 2,61 0,9 -10,14 -30,14 -15,0 -31,-4 -49,-10 -18,-7 -26,-16 -26,-28 0,-10 0,-27 1,-50 1,-22 1,-45 1,-68l0 -641zm476 794c-48,0 -83,-2 -105,-5 -22,-4 -36,-8 -42,-13 -7,-5 -10,-9 -10,-13 0,-8 6,-14 16,-18 11,-5 30,-7 57,-7l0 -787c-12,-2 -24,-10 -36,-23 -11,-13 -17,-24 -17,-34 0,-8 3,-13 9,-16 14,-5 33,-10 57,-15 24,-5 51,-10 81,-14 30,-3 59,-7 89,-9 30,-2 56,-3 79,-3 67,0 129,11 188,33 59,22 111,54 157,95 46,41 82,91 108,149 26,58 39,123 39,195 0,71 -12,135 -35,189 -23,55 -53,101 -91,138 -38,38 -81,68 -128,90 -47,22 -95,38 -143,47 -46,8 -89,13 -131,16 -41,2 -83,4 -123,5l-19 0zm9 -64c131,-3 238,-23 321,-60 84,-37 146,-87 186,-150 40,-63 60,-134 60,-213 0,-62 -12,-117 -36,-165 -23,-48 -54,-89 -93,-122 -39,-34 -83,-59 -131,-76 -47,-17 -96,-26 -145,-26 -56,0 -110,7 -162,21l0 791zm1045 -439c-65,-15 -116,-38 -154,-70 -38,-32 -57,-78 -57,-137 0,-42 13,-83 41,-121 27,-38 65,-69 113,-92 48,-24 102,-35 163,-35 50,0 96,7 139,21 42,15 76,33 103,53 26,20 39,40 39,58 0,21 -4,37 -12,50 -8,13 -16,20 -23,20 -6,0 -12,-4 -18,-10 -7,-6 -12,-11 -16,-16 -16,-20 -37,-37 -61,-51 -25,-14 -51,-24 -77,-31 -26,-7 -49,-11 -70,-11 -42,0 -81,8 -115,25 -35,16 -62,37 -82,62 -20,26 -30,52 -30,81 0,30 12,55 35,76 24,20 63,36 118,49l145 37c86,22 149,56 191,103 41,46 61,105 61,176 0,51 -13,98 -40,141 -27,42 -66,76 -117,101 -51,25 -113,37 -187,37 -74,0 -139,-12 -193,-37 -55,-25 -103,-61 -145,-108 -4,-4 -6,-11 -6,-21 0,-15 6,-30 17,-46 12,-15 23,-23 35,-23 7,0 12,3 16,9 21,35 44,62 70,81 26,19 52,33 78,41 27,9 52,15 74,17 23,2 41,3 55,3 44,0 84,-8 122,-24 38,-17 68,-39 92,-67 23,-28 35,-59 35,-93 0,-57 -16,-102 -47,-134 -31,-32 -76,-56 -136,-72l-156 -42z"/>
   <path class="fil2" d="M1128 2749l0 165 63 0c35,0 61,-7 78,-20 16,-14 25,-34 25,-62 0,-29 -9,-50 -26,-63 -16,-14 -43,-20 -80,-20l-60 0zm-42 -43l92 0c26,0 47,1 63,4 16,3 29,7 40,13 19,12 33,27 44,45 10,19 15,39 15,62 0,22 -5,42 -14,61 -9,18 -22,33 -38,44 -12,8 -26,13 -42,17 -16,3 -36,5 -61,5l-57 0 0 182 -42 0 0 -433zm545 433l-43 0 0 -433 43 0 0 194 206 0 0 -194 43 0 0 433 -43 0 0 -197 -206 0 0 197zm542 -218c0,52 17,97 51,132 35,36 77,54 128,54 49,0 90,-18 124,-54 34,-36 51,-81 51,-134 0,-49 -17,-91 -52,-127 -35,-35 -77,-53 -126,-53 -21,0 -40,3 -58,10 -19,7 -36,17 -52,30 -20,18 -37,39 -48,64 -12,25 -18,51 -18,78zm-45 -1c0,-30 6,-59 18,-86 12,-28 28,-52 50,-74 22,-21 45,-36 70,-47 26,-10 54,-16 83,-16 31,0 59,6 85,16 26,11 49,27 71,48 22,21 38,46 49,72 11,27 17,56 17,87 0,31 -5,59 -14,85 -10,25 -24,49 -43,70 -22,24 -47,42 -75,54 -28,13 -58,19 -90,19 -63,0 -115,-22 -157,-66 -42,-44 -64,-98 -64,-162zm763 219l-43 0 0 -390 -86 0 0 -43 216 0 0 43 -87 0 0 390zm321 -218c0,52 17,97 52,132 34,36 76,54 127,54 49,0 91,-18 124,-54 34,-36 51,-81 51,-134 0,-49 -17,-91 -52,-127 -35,-35 -77,-53 -126,-53 -20,0 -40,3 -58,10 -19,7 -36,17 -51,30 -21,18 -37,39 -49,64 -12,25 -18,51 -18,78zm-44 -1c0,-30 6,-59 17,-86 12,-28 29,-52 51,-74 21,-21 44,-36 70,-47 25,-10 53,-16 83,-16 30,0 58,6 84,16 26,11 49,27 71,48 22,21 39,46 50,72 11,27 16,56 16,87 0,31 -5,59 -14,85 -10,25 -24,49 -43,70 -22,24 -47,42 -75,54 -27,13 -58,19 -90,19 -62,0 -115,-22 -157,-66 -42,-44 -63,-98 -63,-162zm843 11l269 0c-4,63 -26,115 -68,156 -42,40 -93,61 -154,61 -63,0 -115,-22 -157,-66 -42,-43 -64,-97 -64,-162 0,-30 6,-59 18,-86 11,-28 28,-52 50,-74 22,-21 45,-37 71,-47 26,-11 55,-16 87,-16 42,0 80,10 113,31 34,20 61,49 81,87l-53 0c-20,-26 -42,-45 -65,-58 -24,-12 -50,-18 -78,-18 -50,0 -92,18 -127,53 -34,36 -51,79 -51,129 0,53 17,97 51,133 34,35 77,53 127,53 40,0 75,-13 107,-38 31,-26 52,-59 61,-99l-218 0 0 -39zm554 -182l0 390 -42 0 0 -433 116 0c26,0 47,2 62,6 16,4 30,10 43,19 17,12 31,28 41,48 10,21 15,42 15,65 0,33 -10,62 -30,86 -20,24 -45,38 -75,40l105 169 -51 0 -129 -209 42 0c27,0 49,-8 66,-24 17,-16 26,-37 26,-62 0,-15 -3,-29 -8,-41 -5,-13 -13,-24 -23,-33 -9,-8 -19,-13 -31,-17 -12,-3 -33,-4 -64,-4l-63 0zm482 390l-45 0 169 -433 51 0 168 433 -46 0 -52 -136 -193 0 -52 136zm230 -175l-82 -217 -81 217 163 0zm373 -215l0 165 62 0c35,0 61,-7 78,-20 16,-14 25,-34 25,-62 0,-29 -9,-50 -25,-63 -17,-14 -44,-20 -81,-20l-59 0zm-43 -43l92 0c26,0 48,1 63,4 16,3 29,7 40,13 19,12 34,27 44,45 10,19 15,39 15,62 0,22 -4,42 -14,61 -9,18 -22,33 -38,44 -12,8 -26,13 -41,17 -16,3 -37,5 -62,5l-56 0 0 182 -43 0 0 -433zm545 433l-43 0 0 -433 43 0 0 194 206 0 0 -194 43 0 0 433 -43 0 0 -197 -206 0 0 197zm645 -159l0 159 -42 0 0 -160 -138 -273 49 0 110 225 112 -225 48 0 -139 274z"/>
   <path class="fil3" d="M3848 1082c-76,-40 -84,-197 1,-235 216,-97 415,325 372,681 -59,-136 -179,-235 -392,-212 -141,15 -242,-12 -242,-117 20,-124 137,-148 261,-117z"/>
   <path class="fil4" d="M2045 3883c-7,0 -14,-3 -19,-8 -5,-6 -7,-14 -7,-21 0,-14 3,-28 8,-44l63 -169c-7,-4 -15,-8 -23,-11l4 -12 28 0 76 -177 22 -5 -76 182 63 0 -7 14 -55 0c13,9 23,20 30,33 8,13 11,28 11,43 0,39 -13,78 -39,117 -26,39 -52,58 -79,58zm1 -18c20,0 40,-19 63,-55 23,-36 34,-69 34,-99 0,-11 -3,-22 -8,-33 -6,-10 -15,-20 -25,-29l-63 170c-5,13 -7,24 -7,33 0,2 0,5 2,9 1,2 2,4 4,4zm184 -118c-7,0 -13,-3 -18,-8 -5,-6 -8,-14 -9,-23 0,-10 4,-21 12,-35 8,-12 19,-25 35,-39l-27 0 -8 14 -24 5 29 -62 22 0 -10 24 65 0 -10 19 -9 0c-17,14 -30,28 -39,41 -9,13 -14,24 -14,33 0,4 2,6 6,8 3,3 8,4 13,4l24 0 -10 19 -28 0zm98 3c-13,0 -24,-4 -34,-11 -9,-8 -14,-17 -14,-28 0,-23 12,-45 34,-67 23,-22 47,-33 72,-33l12 17c-20,0 -41,9 -63,26 -20,18 -31,36 -31,54 0,5 3,10 8,14 5,4 11,6 19,6 9,0 18,-4 27,-11 10,-9 19,-19 25,-32 -4,0 -8,-1 -12,-4 -3,-2 -4,-6 -4,-9 0,-7 3,-14 11,-21 7,-7 14,-11 22,-11 4,0 6,2 9,8 2,5 3,11 3,18l24 0 -7 19 -24 0c-7,19 -18,35 -32,47 -13,12 -28,18 -45,18zm84 2l48 -122 24 -7 -19 52c9,-13 22,-26 40,-38 19,-13 34,-19 45,-19 4,0 7,1 9,4 3,3 4,7 4,10 0,4 -2,11 -7,23 -5,14 -4,16 5,7 8,-9 19,-19 33,-29 14,-10 26,-15 36,-15 4,0 7,1 10,4 3,3 5,6 5,10 0,2 -1,5 -3,9 -1,4 -10,26 -26,68 -2,6 -3,10 -4,12 0,2 1,4 3,5 2,1 4,2 7,2l25 0 -10 19 -33 0c-5,0 -9,-2 -12,-6 -2,-3 -3,-7 -3,-13 0,-6 1,-12 3,-19l19 -48 2 -6c0,0 1,-1 1,-2 0,-1 -1,-2 -1,-3 -2,-1 -3,-1 -4,-1 -7,2 -21,14 -41,36 -20,20 -35,39 -45,57l-27 10 24 -55c11,-24 16,-40 16,-48 0,-1 -1,-1 -2,-2 -1,0 -3,0 -5,0 -11,4 -26,16 -46,37 -21,22 -36,42 -47,61l-24 7zm408 -5c-5,0 -8,-1 -11,-5 -3,-4 -4,-8 -4,-12 0,-2 2,-8 5,-16l34 -77 -34 0 12 -19 29 0 26 -62 27 -10 -29 72 26 0 -9 19 -24 0 -31 72c-1,3 -2,7 -3,12 0,2 1,3 3,5 3,1 6,2 9,2l26 0 -12 19 -40 0zm55 5l134 -316 24 -9 -103 241c19,-18 35,-32 49,-40 14,-10 26,-15 35,-15 4,0 8,2 10,6 3,4 4,9 4,13 0,5 -2,11 -5,20l-26 57c-2,4 -3,6 -3,6 -1,4 -2,7 -2,8 0,2 1,3 3,4 2,1 4,1 7,1l33 0 -17 19 -33 0c-4,0 -8,-1 -12,-5 -3,-3 -5,-7 -5,-12 0,-5 1,-9 2,-11l28 -63c4,-13 6,-17 4,-13 0,-1 0,-1 0,-2 0,0 -1,0 -3,-1 -1,0 -3,0 -5,0 -5,0 -19,11 -41,34 -22,21 -39,41 -51,59 -1,2 -4,5 -9,8 -12,7 -18,11 -18,11zm197 -5c-9,0 -15,-3 -19,-9 -4,-6 -6,-15 -7,-27 0,-24 11,-47 33,-70 22,-22 45,-33 69,-33 6,0 11,2 15,5 3,3 5,8 6,15 0,15 -10,30 -28,47 -19,17 -43,31 -74,44 0,2 2,4 5,6 4,2 8,3 13,3l66 0 -14 19 -65 0zm0 -52c20,-10 37,-21 52,-33 14,-12 21,-21 22,-27 0,-2 -1,-3 -2,-5 0,-2 -1,-2 -2,-2 -12,0 -26,8 -43,24 -17,16 -26,30 -27,43zm284 57c-12,0 -21,-4 -27,-12 -7,-9 -10,-21 -10,-36 0,-8 3,-21 9,-38l96 -230 29 -7 -101 237c-6,17 -9,30 -9,38 0,7 1,13 5,17 3,5 7,7 12,7 10,0 20,-9 32,-26 11,-16 17,-32 18,-48 -6,0 -11,-1 -15,-3 -4,-2 -6,-5 -7,-8 0,-6 3,-13 9,-19 6,-7 12,-11 18,-11 3,0 7,1 11,4 3,3 6,7 8,11l24 0 -7 24 -17 0c-5,28 -15,52 -29,71 -15,19 -31,29 -49,29zm113 0c-7,0 -13,-3 -18,-9 -5,-6 -7,-12 -6,-20 0,-3 1,-8 5,-16l36 -87 26 -7 -39 91c-1,4 -2,6 -2,6 -2,5 -3,7 -2,9 0,3 0,5 2,6 1,2 3,3 5,3 7,0 22,-12 47,-35 8,-9 15,-19 19,-30 4,-12 10,-26 18,-40l28 -12c-4,20 -15,43 -31,69 -6,15 -9,26 -9,34 0,4 1,7 3,10 4,3 7,4 11,4l17 0 -10 19 -23 0c-6,0 -11,-3 -15,-8 -3,-6 -5,-12 -4,-20 -10,10 -20,19 -30,24 -10,6 -19,9 -28,9zm108 0l48 -122 24 -7 -20 52c9,-13 23,-26 41,-38 18,-13 33,-19 45,-19 3,0 6,1 9,4 2,3 4,7 4,10 0,4 -3,11 -8,23 -5,14 -3,16 5,7 8,-9 19,-19 34,-29 14,-10 26,-15 35,-15 4,0 7,1 11,4 3,3 4,6 4,10 0,2 -1,5 -2,9 -2,4 -11,26 -27,68 -2,6 -3,10 -4,12 0,2 1,4 4,5 1,1 3,2 6,2l25 0 -9 19 -34 0c-5,0 -8,-2 -11,-6 -3,-3 -4,-7 -4,-13 0,-6 1,-12 4,-19l18 -48 2 -6c1,0 1,-1 1,-2 0,-1 0,-2 -1,-3 -1,-1 -3,-1 -4,-1 -7,2 -21,14 -41,36 -19,20 -34,39 -45,57l-26 10 23 -55c11,-24 16,-40 16,-48 1,-1 0,-1 -2,-2 -1,0 -3,0 -5,0 -10,4 -26,16 -46,37 -20,22 -36,42 -46,61l-24 7zm192 120l63 -145c7,-20 11,-52 11,-95l21 -14c2,7 4,17 4,29 0,9 -1,22 -5,39 12,-17 28,-33 50,-47 21,-15 38,-22 52,-22 9,0 16,4 21,11 6,6 9,15 9,24 0,11 -5,24 -14,38 -10,14 -22,26 -39,38l37 0 -14 19 -91 0 10 -17 4 0c16,0 35,-9 55,-29 21,-19 31,-37 31,-52 0,-4 -2,-6 -5,-8 -2,-3 -5,-4 -9,-4 -17,4 -37,17 -59,39 -23,22 -39,44 -51,66l-53 120 -28 10zm394 -125c-4,0 -8,-1 -10,-5 -3,-4 -5,-8 -4,-12 0,-2 1,-8 4,-16l34 -77 -34 0 12 -19 29 0 26 -62 27 -10 -29 72 26 0 -9 19 -24 0 -31 72c-1,3 -2,7 -3,12 0,2 2,3 4,5 2,1 5,2 8,2l27 0 -12 19 -41 0zm112 3c-13,0 -24,-4 -34,-11 -9,-8 -14,-17 -14,-28 0,-23 11,-45 34,-67 23,-22 47,-33 71,-33l12 17c-20,0 -40,9 -62,26 -21,18 -31,36 -31,54 0,5 3,10 8,14 5,4 11,6 18,6 9,0 19,-4 28,-11 10,-9 18,-19 25,-32 -4,0 -8,-1 -12,-4 -3,-2 -5,-6 -5,-9 0,-7 4,-14 12,-21 7,-7 14,-11 22,-11 3,0 6,2 8,8 3,5 4,11 4,18l24 0 -7 19 -24 0c-8,19 -18,35 -32,47 -14,12 -29,18 -45,18zm259 -3c-5,0 -8,-1 -11,-5 -2,-4 -4,-8 -3,-12 0,-2 1,-8 4,-16l34 -77 -34 0 12 -19 29 0 26 -62 27 -10 -29 72 26 0 -9 19 -24 0 -31 72c-1,3 -2,7 -3,12 0,2 1,3 4,5 2,1 5,2 8,2l27 0 -12 19 -41 0zm55 5l134 -316 24 -9 -103 241c19,-18 35,-32 49,-40 14,-10 26,-15 35,-15 4,0 8,2 10,6 3,4 4,9 4,13 0,5 -1,11 -5,20l-26 57c-2,4 -2,6 -2,6 -2,4 -3,7 -3,8 0,2 1,3 3,4 2,1 4,1 7,1l33 0 -16 19 -34 0c-4,0 -8,-1 -12,-5 -3,-3 -5,-7 -5,-12 0,-5 1,-9 2,-11l28 -63c4,-13 6,-17 4,-13 0,-1 0,-1 0,-2 0,0 -1,0 -3,-1 -1,0 -3,0 -4,0 -6,0 -19,11 -42,34 -21,21 -38,41 -51,59 -1,2 -4,5 -8,8 -13,7 -19,11 -19,11zm198 -5c-9,0 -16,-3 -20,-9 -4,-6 -6,-15 -7,-27 0,-24 11,-47 33,-70 22,-22 45,-33 69,-33 6,0 11,2 15,5 3,3 5,8 6,15 0,15 -9,30 -28,47 -18,17 -43,31 -74,44 0,2 2,4 6,6 3,2 7,3 12,3l67 0 -15 19 -64 0zm0 -52c19,-10 36,-21 51,-33 14,-12 21,-21 22,-27 0,-2 -1,-3 -2,-5 0,-2 -1,-2 -2,-2 -12,0 -26,8 -43,24 -17,16 -25,30 -26,43zm283 57c-11,0 -21,-4 -27,-12 -7,-9 -10,-21 -10,-36 0,-8 3,-21 10,-38l95 -230 29 -7 -100 237c-7,17 -10,30 -10,38 0,7 2,13 5,17 3,5 7,7 12,7 10,0 21,-9 32,-26 11,-16 17,-32 18,-48 -6,0 -11,-1 -15,-3 -4,-2 -6,-5 -7,-8 0,-6 3,-13 10,-19 5,-7 11,-11 17,-11 4,0 7,1 11,4 4,3 6,7 8,11l24 0 -7 24 -17 0c-5,28 -15,52 -29,71 -15,19 -31,29 -49,29zm108 0c-7,0 -12,-3 -17,-9 -5,-6 -8,-14 -7,-22 0,-26 15,-52 45,-78 30,-26 60,-39 89,-39l24 0 -10 16 -9 0c-23,3 -48,15 -77,37 -27,23 -40,42 -40,59 0,4 1,6 3,8 1,3 3,4 6,4 7,0 14,-3 23,-9 7,-7 16,-16 25,-28 9,-12 14,-25 17,-39l38 -10c-6,13 -14,29 -25,46 -8,12 -13,21 -13,26 0,4 2,7 5,10 3,3 7,4 12,4l33 0 -12 19 -36 0c-6,0 -11,-2 -15,-6 -4,-3 -6,-8 -5,-13 -5,7 -13,13 -22,17 -10,5 -20,7 -32,7zm179 0c-12,0 -21,-4 -27,-12 -7,-9 -10,-21 -10,-36 0,-8 3,-21 9,-38l96 -230 29 -7 -101 237c-6,17 -9,30 -9,38 0,7 1,13 4,17 4,5 8,7 12,7 11,0 21,-9 32,-26 12,-16 18,-32 19,-48 -6,0 -11,-1 -16,-3 -4,-2 -6,-5 -6,-8 0,-6 3,-13 9,-19 6,-7 11,-11 17,-11 4,0 8,1 11,4 4,3 7,7 9,11l23 0 -7 24 -16 0c-5,28 -15,52 -30,71 -14,19 -30,29 -48,29zm72 132l-19 -12c19,-11 36,-23 49,-35 13,-11 22,-22 27,-32l31 -82c-7,9 -16,15 -26,20 -10,4 -19,7 -29,7 -5,0 -10,-3 -13,-7 -4,-4 -6,-10 -6,-17 0,-2 1,-6 4,-13 2,-6 15,-36 39,-90l24 -7 -38 88c-1,2 -2,6 -4,11 -1,2 -1,4 -1,6 0,2 1,3 2,5 2,1 4,2 6,2 5,0 14,-6 28,-17 12,-11 25,-26 41,-46l14 -37 34 -10c-3,13 -13,32 -32,57l-50 120c-3,15 -11,30 -25,45 -14,15 -33,30 -56,44zm179 -137c-7,0 -13,-2 -17,-7 -5,-4 -7,-10 -7,-17 0,-6 2,-12 7,-17 4,-4 10,-7 17,-7 6,0 12,3 17,8 4,4 7,10 7,16 0,7 -3,13 -8,18 -4,4 -10,6 -16,6zm93 0c-7,0 -13,-2 -18,-7 -4,-4 -6,-10 -6,-17 0,-6 2,-12 7,-17 4,-4 10,-7 17,-7 6,0 12,3 17,8 4,4 6,10 6,16 0,7 -2,13 -7,18 -4,4 -10,6 -16,6zm92 0c-6,0 -12,-2 -17,-7 -4,-4 -7,-10 -7,-17 0,-6 3,-12 8,-17 4,-4 10,-7 16,-7 7,0 13,3 18,8 4,4 6,10 6,16 0,7 -2,13 -7,18 -4,4 -10,6 -17,6zm93 0c-7,0 -12,-2 -17,-7 -5,-4 -7,-10 -7,-17 0,-6 3,-12 7,-17 5,-4 10,-7 17,-7 7,0 13,3 17,8 5,4 7,10 7,16 0,7 -2,13 -7,18 -5,4 -10,6 -17,6zm93 0c-7,0 -12,-2 -17,-7 -5,-4 -7,-10 -7,-17 0,-6 2,-12 7,-17 5,-4 10,-7 17,-7 7,0 12,3 17,8 5,4 7,10 7,16 0,7 -2,13 -7,18 -5,4 -10,6 -17,6z"/>
  </g>
 </g>
</svg>
